<svg xmlns="http://www.w3.org/2000/svg" width="24" height="24" viewBox="0 0 24 24">
    <title>
        external-link
    </title>
    <path d="M18.857 12.429v4.286c0 2.129-1.728 3.857-3.857 3.857H3.857C1.728 20.572 0 18.844 0 16.715V5.572c0-2.129 1.728-3.857 3.857-3.857h9.429c.241 0 .429.188.429.429v.857c0 .241-.188.429-.429.429H3.857c-1.179 0-2.143.964-2.143 2.143v11.143c0 1.179.964 2.143 2.143 2.143H15c1.179 0 2.143-.964 2.143-2.143V12.43c0-.241.188-.429.429-.429h.857c.241 0 .429.188.429.429zM24 .857v6.857c0 .469-.388.857-.857.857-.228 0-.442-.094-.603-.254L20.183 5.96l-8.732 8.732c-.08.08-.201.134-.308.134s-.228-.054-.308-.134l-1.527-1.527c-.08-.08-.134-.201-.134-.308s.054-.228.134-.308l8.732-8.732-2.357-2.357c-.161-.161-.254-.375-.254-.603 0-.469.388-.857.857-.857h6.857c.469 0 .857.388.857.857z"/>
</svg>
