<svg xmlns="http://www.w3.org/2000/svg" width="16" height="16" viewBox="0 0 16 16">
    <path d="M16 3.538c-.588.263-1.222.438-1.884.516.678-.406 1.197-1.05 1.444-1.816-.634.375-1.338.65-2.084.797-.6-.638-1.453-1.034-2.397-1.034-1.813 0-3.281 1.469-3.281 3.281 0 .256.028.506.084.747-2.728-.138-5.147-1.444-6.766-3.431-.281.484-.444 1.05-.444 1.65 0 1.138.578 2.144 1.459 2.731-.538-.016-1.044-.166-1.488-.409v.041c0 1.591 1.131 2.919 2.634 3.219-.275.075-.566.116-.866.116-.212 0-.416-.022-.619-.059.419 1.303 1.631 2.253 3.066 2.281-1.125.881-2.538 1.406-4.078 1.406-.266 0-.525-.016-.784-.047 1.456.934 3.181 1.475 5.034 1.475 6.037 0 9.341-5.003 9.341-9.341 0-.144-.003-.284-.009-.425.641-.459 1.197-1.038 1.637-1.697z"/>
</svg>
