<svg xmlns="http://www.w3.org/2000/svg" width="16" height="16" viewBox="0 0 16 16">
    <path d="M8 3c-.858 0-1.687.135-2.464.402-.73.251-1.38.605-1.932 1.054C2.569 5.297 2 6.378 2 7.5c0 .63.175 1.24.52 1.815.356.592.89 1.134 1.547 1.566.474.312.793.812.878 1.373.028.187.046.376.053.564.117-.097.23-.201.342-.312.377-.377.887-.586 1.414-.586.084 0 .168.005.252.016.328.042.662.063.995.063.858 0 1.687-.135 2.464-.402.73-.251 1.38-.605 1.932-1.054 1.035-.841 1.604-1.922 1.604-3.044s-.57-2.203-1.604-3.044c-.552-.448-1.202-.803-1.932-1.054-.777-.267-1.606-.402-2.464-.402zm0-2c4.418 0 8 2.91 8 6.5S12.418 14 8 14c-.424 0-.841-.027-1.247-.079-1.718 1.718-3.77 2.027-5.753 2.072v-.421c1.071-.525 2-1.48 2-2.572 0-.152-.012-.302-.034-.448C1.157 11.36 0 9.54 0 7.5 0 3.91 3.582 1 8 1z"/>
</svg>
