<svg xmlns="http://www.w3.org/2000/svg" width="31" height="24" viewBox="0 0 31 24">
    <title>
        google-plus
    </title>
    <path d="M19.246 12.228c0 5.612-3.763 9.589-9.429 9.589C4.393 21.817 0 17.424 0 12s4.393-9.817 9.817-9.817c2.652 0 4.862.964 6.576 2.571l-2.665 2.558c-.723-.696-1.996-1.513-3.911-1.513-3.348 0-6.08 2.772-6.08 6.201s2.732 6.201 6.08 6.201c3.884 0 5.344-2.799 5.571-4.232H9.817v-3.375h9.268c.094.496.161.991.161 1.634zm11.611-1.634v2.813h-2.799v2.799h-2.813v-2.799h-2.799v-2.813h2.799V7.795h2.813v2.799h2.799z"/>
</svg>
